<?xml version="1.0" encoding="utf-8"?>
<svg width="562px" height="239px" viewBox="0 0 562 239" version="1.1" xmlns:xlink="http://www.w3.org/1999/xlink" xmlns="http://www.w3.org/2000/svg">
  <defs>
    <rect width="562" height="239" id="artboard_1" />
    <clipPath id="clip_1">
      <use xlink:href="#artboard_1" clip-rule="evenodd" />
    </clipPath>
  </defs>
  <g id="Pixelbook" clip-path="url(#clip_1)">
    <use xlink:href="#artboard_1" stroke="none" fill="#FFFFFF" />
    <g id="g19" transform="translate(31 32.793)" artboard="d576eb9b-d318-4d95-aad0-b5b9366cbb3f">
      <g id="g25" transform="translate(38.259186 66.46832)">
        <path d="M186.105 33.7511L186.105 33.7511C186.105 31.3352 184.146 29.3758 181.729 29.3758L97.9622 29.3758C96.4206 29.3758 94.9927 28.565 94.2034 27.2403C94.2034 27.2403 77.4193 -0.0137954 77.3503 0L43.5986 0C43.5081 0 0.995868 67.3046 0.995868 67.3046C-1.66065 71.4404 1.30881 76.8782 6.22504 76.8782L179.854 76.8782C182.271 76.8782 184.23 74.9193 184.23 72.5029L184.23 71.2527C184.23 68.8363 182.271 66.878 179.854 66.878L120.091 66.878C118.549 66.878 117.121 66.0661 116.332 64.7414L103.597 43.3638C102.221 41.0545 103.885 38.1264 106.573 38.1264L181.729 38.1264C184.146 38.1264 186.105 36.1675 186.105 33.7511" id="path27" fill="#BDD0E7" fill-rule="evenodd" stroke="none" />
      </g>
      <g id="g29" transform="translate(44.30966 105.24277)">
        <path d="M20.0812 0L3.20311 25.0728C2.02029 26.8302 0.821455 28.6196 0.193337 30.6425C-0.00977802 31.296 -0.135629 32.0583 0.249087 32.6235C1.29723 34.3533 7.14346 34.3014 9.8966 34.3494C10.8139 34.3654 33.0503 34.3428 33.1734 34.3533C26.3546 33.7688 19.3984 32.8719 12.7275 31.3385C11.2246 30.9925 8.7204 30.6663 8.15962 28.9856C7.95484 28.3707 7.97194 27.704 8.04537 27.0598C8.35225 24.3586 9.56101 21.8494 10.7278 19.4297C13.8496 12.9553 16.9549 6.47161 20.0812 0" id="path31" fill="#FFFFFF" fill-rule="evenodd" stroke="none" />
      </g>
      <g id="g33">
        <path d="M249.234 120.155L247.345 119.168L248.996 117.849C250.956 116.305 252.691 114.214 254.201 111.635C255.662 109.116 256.387 105.587 256.387 101.167L256.387 92.1953C256.387 88.6424 255.96 85.3274 255.092 82.3921C254.236 79.5049 252.905 77.0217 251.075 74.9894C249.281 72.9577 246.869 71.389 243.922 70.2962C240.916 69.1796 237.125 68.6089 232.682 68.6089L149.612 68.7756L134.236 44.4164L134.236 12.1743C138.491 9.52552 148.984 3.05614 149.605 2.58752C149.792 2.44512 150.208 2.12169 150.632 1.72428C151.292 1.10555 150.856 -0.00221079 149.951 0C144.181 0.0121404 138.412 0.0253925 132.642 0.0391879C127.027 0.0535391 121.411 0.0706569 115.795 0.0899603C115.59 0.0905162 115.382 0.0916279 115.18 0.146809C113.244 0.677235 113.063 3.87908 113.063 5.45988L113.063 26.5211C113.063 26.605 113.077 26.6856 113.097 26.7634L113.097 49.894C113.287 50.1948 138.624 89.94 138.775 90.1757L226.526 90.2348C231.125 90.2348 233.644 92.5993 233.644 96.9007L233.644 102.046C233.644 104.303 233.086 106.157 231.98 107.536C230.792 108.997 228.915 109.746 226.396 109.746L175.468 109.746L151.275 109.746C155.422 116.245 159.236 122.21 162.278 126.987L186.352 126.975L225.992 126.951C231.196 126.951 234.06 129.791 234.06 134.937L234.06 140.236C234.06 143.111 233.383 145.31 232.052 146.748C230.674 148.233 228.416 148.946 225.16 148.946L29.474 148.409C25.9488 148.4 23.8066 144.522 25.6827 141.537C39.275 119.915 80.505 54.3294 82.6902 50.8687C82.8088 50.6783 82.9154 50.5 83.0346 50.3217L83.3078 49.8939L83.3078 26.7358C83.3233 26.6663 83.3327 26.5951 83.3327 26.5211L83.3327 5.45988C83.3327 3.8791 83.1522 0.677248 81.2165 0.146809C81.0145 0.0916153 80.8064 0.0905162 80.6016 0.0899603C74.9855 0.0706443 69.37 0.0535391 63.7545 0.0391879C57.9844 0.0253925 52.2149 0.0121404 46.4453 0C45.5407 -0.00221079 45.1041 1.10556 45.7642 1.72428C46.1887 2.12169 46.6043 2.44512 46.792 2.58752C47.4123 3.05614 57.8999 9.52221 62.1571 12.1721L62.1571 44.4164L5.14526 134.758C3.60089 136.921 0 142.874 0 151.477C0 161.945 8.07998 169.954 19.9507 172.141L19.9507 172.152L20.0462 172.152C22.1133 172.533 24.2995 172.746 26.5813 172.746L150.848 172.746L233.49 172.782C242.65 172.782 249.174 170.453 252.881 165.866C256.66 161.196 258.585 154.506 258.585 145.951L258.585 137.872C258.585 133.463 257.658 129.696 255.852 126.69C254.034 123.696 251.8 121.486 249.234 120.155" id="path35" fill="#36426B" fill-rule="evenodd" stroke="none" />
      </g>
      <g id="g37" transform="translate(263.31506 68.6142)">
        <path d="M112.333 10.9672C109.166 7.51975 104.938 4.79755 99.7659 2.89387C98.1199 2.29336 96.3498 1.77894 94.4699 1.36554L94.7431 41.6754L94.8673 59.9764C94.8673 66.8095 93.5801 71.4818 90.9286 74.3055C88.2682 77.1216 83.8614 78.5412 77.8546 78.5412L26.5372 78.5412L26.5372 27.3325C26.5372 26.4273 26.8407 25.6082 27.4412 24.9221C28.1047 24.1654 29.0331 23.7597 30.1325 23.7597L77.8546 23.7597C79.1031 23.7597 80.2887 23.8221 81.3965 23.9391L81.3965 0.00773146C81.1155 0 80.8351 0 80.5542 0L2.55886 0C1.01393 0 0 0.507244 0 2.99544L0 103.339L80.5542 103.339C88.0656 103.339 94.524 102.363 99.7659 100.445C104.938 98.5416 109.166 95.8272 112.333 92.3637C115.507 88.9002 117.864 84.6099 119.321 79.6335C120.18 76.6927 120.796 73.5257 121.147 70.156L121.147 33.1826C120.796 29.8207 120.18 26.6459 119.321 23.6974C117.847 18.7133 115.507 14.4384 112.333 10.9672" id="path39" fill="#36426B" fill-rule="evenodd" stroke="none" />
      </g>
      <g id="g41" transform="translate(388.59198 69.44174)">
        <path d="M31.4164 78.4049C29.6247 78.4049 28.3238 77.9357 27.5593 76.9979C26.8799 76.1573 26.5482 75.0258 26.5482 73.5223L26.5482 0L0 0L0 96.5546C0 98.8579 0.476319 100.595 1.41521 101.754C2.26628 102.802 3.85643 103.34 6.12443 103.34L111.408 103.34L111.408 78.4049L31.4164 78.4049Z" id="path43" fill="#36426B" fill-rule="evenodd" stroke="none" />
      </g>
    </g>
  </g>
</svg>