<?xml version="1.0" encoding="utf-8"?>
<svg width="290.64975px" height="194.207px" viewBox="0 0 290.64975 194.207" version="1.1" xmlns:xlink="http://www.w3.org/1999/xlink" xmlns="http://www.w3.org/2000/svg">
  <g id="g19">
    <g id="g25" transform="translate(43.003357 74.71039)">
      <path d="M209.182 37.9362L209.182 37.9362C209.182 35.2208 206.98 33.0184 204.264 33.0184L110.11 33.0184C108.377 33.0184 106.772 32.1071 105.885 30.6181C105.885 30.6181 87.0192 -0.015506 86.9417 0L49.0048 0C48.9031 0 1.11936 75.6504 1.11936 75.6504C-1.86657 80.299 1.47111 86.4111 6.99694 86.4111L202.156 86.4111C204.872 86.4111 207.074 84.2093 207.074 81.4932L207.074 80.088C207.074 77.372 204.872 75.1708 202.156 75.1708L134.982 75.1708C133.249 75.1708 131.645 74.2583 130.757 72.7693L116.442 48.741C114.896 46.1453 116.766 42.8541 119.788 42.8541L204.264 42.8541C206.98 42.8541 209.182 40.6523 209.182 37.9362" id="path27" fill="#BDD0E7" fill-rule="evenodd" stroke="none" />
    </g>
    <g id="g29" transform="translate(49.804077 118.29285)">
      <path d="M22.5712 0L3.6003 28.1819C2.2708 30.1572 0.923315 32.1685 0.217311 34.4422C-0.0109905 35.1767 -0.152447 36.0335 0.279974 36.6688C1.45809 38.6131 8.02925 38.5548 11.1238 38.6088C12.1549 38.6267 37.1485 38.6013 37.2869 38.6131C29.6226 37.9561 21.8038 36.948 14.3058 35.2245C12.6164 34.8355 9.80173 34.4689 9.17141 32.5798C8.94124 31.8887 8.96046 31.1393 9.04299 30.4153C9.38793 27.3791 10.7466 24.5588 12.0581 21.839C15.567 14.5618 19.0573 7.27409 22.5712 0" id="path31" fill="#FFFFFF" fill-rule="evenodd" stroke="none" />
    </g>
    <g id="g33">
      <path d="M280.138 135.054L278.016 133.945L279.872 132.463C282.075 130.727 284.025 128.376 285.721 125.478C287.364 122.646 288.179 118.679 288.179 113.711L288.179 103.628C288.179 99.6341 287.699 95.908 286.723 92.6088C285.761 89.3635 284.265 86.5724 282.209 84.2881C280.192 82.0044 277.481 80.2413 274.168 79.0129C270.789 77.7579 266.529 77.1164 261.534 77.1164L168.164 77.3037L150.881 49.924L150.881 13.6839C155.663 10.7067 167.458 3.4351 168.156 2.90838C168.366 2.74832 168.834 2.38478 169.31 1.93809C170.053 1.24264 169.562 -0.00248493 168.545 0C162.06 0.0136458 155.575 0.0285412 149.09 0.0440472C142.778 0.0601779 136.466 0.0794184 130.154 0.101115C129.923 0.10174 129.689 0.10299 129.462 0.165014C127.287 0.761213 127.083 4.36009 127.083 6.1369L127.083 29.8097C127.083 29.904 127.099 29.9946 127.121 30.0821L127.121 56.0808C127.334 56.4189 155.813 101.093 155.983 101.358L254.616 101.424C259.784 101.424 262.616 104.082 262.616 108.916L262.616 114.7C262.616 117.237 261.988 119.321 260.746 120.87C259.41 122.513 257.3 123.354 254.469 123.354L197.226 123.354L170.033 123.354C174.694 130.66 178.981 137.364 182.401 142.733L209.46 142.72L254.014 142.693C259.865 142.693 263.083 145.885 263.083 151.669L263.083 157.626C263.083 160.857 262.322 163.328 260.826 164.944C259.277 166.614 256.739 167.415 253.08 167.415L33.1288 166.812C29.1664 166.801 26.7587 162.442 28.8674 159.088C44.1451 134.784 90.4876 61.0663 92.9438 57.1764C93.0771 56.9624 93.1969 56.762 93.3309 56.5616L93.638 56.0808L93.638 30.0511C93.6553 29.9729 93.6659 29.8929 93.6659 29.8097L93.6659 6.1369C93.6659 4.3601 93.463 0.761227 91.2873 0.165014C91.0603 0.102976 90.8264 0.10174 90.5962 0.101115C84.2837 0.0794042 77.9719 0.0601779 71.66 0.0440472C65.1744 0.0285412 58.6895 0.0136458 52.2046 0C51.1877 -0.00248493 50.697 1.24265 51.439 1.93809C51.9161 2.38478 52.3832 2.74832 52.5942 2.90838C53.2915 3.4351 65.0795 10.703 69.8646 13.6815L69.8646 49.924L5.78327 151.468C4.0474 153.899 0 160.59 0 170.26C0 182.026 9.0819 191.028 22.4246 193.486L22.4246 193.499L22.5319 193.499C24.8553 193.927 27.3127 194.167 29.8774 194.167L169.553 194.167L262.442 194.207C272.739 194.207 280.072 191.589 284.239 186.434C288.486 181.184 290.65 173.665 290.65 164.049L290.65 154.968C290.65 150.012 289.608 145.779 287.578 142.399C285.534 139.034 283.023 136.55 280.138 135.054" id="path35" fill="#36426B" fill-rule="evenodd" stroke="none" />
    </g>
  </g>
</svg>