<?xml version="1.0" encoding="utf-8"?>
<svg width="430px" height="300px" viewBox="0 0 430 300" version="1.1" xmlns:xlink="http://www.w3.org/1999/xlink" xmlns="http://www.w3.org/2000/svg">
  <defs>
    <path d="M0 0L146.93 0L146.93 91.9614L0 91.9614L0 0Z" id="path_1" />
    <path d="M0 91.9614L94.6105 91.9614L94.6105 0L0 0L0 91.9614Z" id="path_2" />
    <rect width="430" height="300" id="artboard_1" />
    <clipPath id="clip_1">
      <use xlink:href="#artboard_1" clip-rule="evenodd" />
    </clipPath>
    <clipPath id="mask_1">
      <use xlink:href="#path_1" />
    </clipPath>
    <clipPath id="mask_2">
      <use xlink:href="#path_2" />
    </clipPath>
  </defs>
  <g id="Artboard" clip-path="url(#clip_1)">
    <use xlink:href="#artboard_1" stroke="none" fill="#FFFFFF" fill-opacity="0" />
    <g id="3DL-Logo-1" transform="translate(314.0699 223.0386)" artboard="4ff2dc0f-7a54-402c-aa87-c93c193af871">
      <path d="M0 0L146.93 0L146.93 91.9614L0 91.9614L0 0Z" id="Background" fill="#FFFFFF" fill-opacity="0" fill-rule="evenodd" stroke="none" />
      <g clip-path="url(#mask_1)">
        <g id="g15" transform="translate(23.652645 0)">
          <g id="g17">
            <g id="Mask-Group">
              <path d="M0 91.9614L94.6105 91.9614L94.6105 0L0 0L0 91.9614Z" id="path21" fill="none" fill-rule="evenodd" stroke="none" />
              <g clip-path="url(#mask_2)">
                <g id="g19" transform="translate(4.4522133 24.981524)">
                  <path d="M38.4585 17.1788L38.4585 17.1788C38.4585 16.7647 38.1227 16.4289 37.7085 16.4289L23.3499 16.4289C23.0856 16.4289 22.8409 16.2899 22.7056 16.0628C22.7056 16.0628 19.8285 11.3911 19.8167 11.3935L14.0313 11.3935C14.0158 11.3935 6.72869 22.9303 6.72869 22.9303C6.27333 23.6392 6.78233 24.5713 7.62503 24.5713L37.3871 24.5713C37.8013 24.5713 38.1371 24.2355 38.1371 23.8213L38.1371 23.607C38.1371 23.1928 37.8013 22.8572 37.3871 22.8572L27.143 22.8572C26.8786 22.8572 26.634 22.718 26.4987 22.4909L24.3156 18.8266C24.0798 18.4307 24.365 17.9288 24.8258 17.9288L37.7085 17.9288C38.1227 17.9288 38.4585 17.593 38.4585 17.1788" id="g25" fill="#BDD0E7" fill-rule="evenodd" stroke="none" />
                  <path d="M11.0374 18.0398L8.14427 22.3376C7.94152 22.6388 7.73602 22.9456 7.62836 23.2923C7.59354 23.4043 7.57197 23.535 7.63791 23.6319C7.81758 23.9284 8.81969 23.9195 9.29161 23.9277C9.44885 23.9305 13.2604 23.9266 13.2815 23.9284C12.1127 23.8282 10.9203 23.6744 9.77687 23.4116C9.51924 23.3523 9.08999 23.2964 8.99387 23.0083C8.95877 22.9029 8.9617 22.7886 8.97429 22.6782C9.02689 22.2152 9.23408 21.7851 9.43409 21.3703C9.96921 20.2605 10.5015 19.1491 11.0374 18.0398" id="g29" fill="#FFFFFF" fill-rule="evenodd" stroke="none" />
                  <path d="M42.7215 20.5959L42.3978 20.4269L42.6809 20.2008C43.0168 19.936 43.3143 19.5776 43.5729 19.1355C43.8234 18.7037 43.9477 18.0988 43.9477 17.3412L43.9477 15.8034C43.9477 15.1943 43.8745 14.6261 43.7257 14.123C43.579 13.6281 43.3509 13.2024 43.0373 12.8541C42.7297 12.5058 42.3162 12.2369 41.8111 12.0496C41.2958 11.8582 40.6461 11.7604 39.8844 11.7604L25.6452 11.7889L23.0096 7.61349L23.0096 2.08682C23.7389 1.63279 25.5376 0.523858 25.644 0.443532C25.6761 0.419123 25.7474 0.363683 25.82 0.295562C25.9333 0.189504 25.8585 -0.000378956 25.7034 0C24.7143 0.00208101 23.7254 0.00435258 22.7364 0.00671726C21.7738 0.00917723 20.8113 0.0121114 19.8486 0.0154203C19.8135 0.0155155 19.7778 0.0157061 19.7431 0.0251648C19.4114 0.116086 19.3804 0.66492 19.3804 0.935887L19.3804 4.54603C19.3804 4.56041 19.3827 4.57423 19.3862 4.58757L19.3862 8.55241C19.4187 8.60397 23.7618 15.4168 23.7876 15.4572L38.8293 15.4673C39.6175 15.4673 40.0493 15.8726 40.0493 16.6099L40.0493 17.4919C40.0493 17.8788 39.9536 18.1966 39.7641 18.4329C39.5604 18.6834 39.2386 18.8117 38.8069 18.8117L30.0772 18.8117L25.9303 18.8117C26.6412 19.9258 27.2949 20.9483 27.8164 21.767L31.943 21.765L38.7376 21.761C39.6298 21.761 40.1206 22.2477 40.1206 23.1297L40.1206 24.0382C40.1206 24.531 40.0045 24.9078 39.7764 25.1543C39.5402 25.4089 39.1531 25.531 38.595 25.531L5.0522 25.439C4.44792 25.4374 4.08073 24.7727 4.40232 24.2611C6.7322 20.5548 13.7995 9.3127 14.1741 8.71949C14.1944 8.68685 14.2127 8.65629 14.2331 8.62573L14.2799 8.5524L14.2799 4.58283C14.2826 4.57091 14.2842 4.55871 14.2842 4.54603L14.2842 0.935887C14.2842 0.664922 14.2533 0.116088 13.9215 0.0251648C13.8868 0.0157039 13.8512 0.0155155 13.8161 0.0154203C12.8534 0.0121093 11.8908 0.00917723 10.9283 0.00671726C9.9392 0.00435258 8.95024 0.00208101 7.96128 0C7.80621 -0.000378956 7.73137 0.189506 7.84452 0.295562C7.91728 0.363683 7.98852 0.419123 8.02069 0.443532C8.12703 0.523858 9.92473 1.63222 10.6545 2.08644L10.6545 7.61349L0.881958 23.0991C0.617235 23.4698 0 24.4902 0 25.9649C0 27.7593 1.385 29.1321 3.41979 29.5069L3.41979 29.5089L3.43615 29.5089C3.79047 29.5741 4.16522 29.6107 4.55634 29.6107L25.857 29.6107L40.0229 29.6169C41.5931 29.6169 42.7113 29.2176 43.3468 28.4314C43.9945 27.6309 44.3245 26.4842 44.3245 25.0177L44.3245 23.6328C44.3245 22.8771 44.1657 22.2315 43.856 21.7161C43.5444 21.2029 43.1615 20.824 42.7215 20.5959" id="g33" fill="#36426B" fill-rule="evenodd" stroke="none" />
                  <path d="M64.3904 13.6412C63.8475 13.0503 63.1229 12.5836 62.2363 12.2573C61.9542 12.1544 61.6507 12.0662 61.3285 11.9953L61.3753 18.9049L61.3966 22.0419C61.3966 23.2132 61.176 24.0141 60.7215 24.4981C60.2655 24.9808 59.5101 25.2242 58.4805 25.2242L49.684 25.2242L49.684 16.4464C49.684 16.2912 49.7361 16.1508 49.839 16.0332C49.9527 15.9035 50.1119 15.834 50.3003 15.834L58.4805 15.834C58.6945 15.834 58.8977 15.8447 59.0876 15.8647L59.0876 11.7626C59.0394 11.7613 58.9913 11.7613 58.9432 11.7613L45.5739 11.7613C45.3091 11.7613 45.1353 11.8482 45.1353 12.2747L45.1353 29.4747L58.9432 29.4747C60.2307 29.4747 61.3378 29.3075 62.2363 28.9787C63.1229 28.6525 63.8475 28.1872 64.3904 27.5935C64.9345 26.9998 65.3385 26.2644 65.5883 25.4114C65.7355 24.9073 65.841 24.3644 65.9012 23.7868L65.9012 17.4492C65.841 16.8729 65.7355 16.3287 65.5883 15.8233C65.3356 14.969 64.9345 14.2362 64.3904 13.6412" id="g37" fill="#36426B" fill-rule="evenodd" stroke="none" />
                  <path d="M71.9943 25.3426C71.6872 25.3426 71.4642 25.2622 71.3332 25.1014C71.2167 24.9574 71.1599 24.7634 71.1599 24.5057L71.1599 11.9031L66.6092 11.9031L66.6092 28.4537C66.6092 28.8485 66.6908 29.1463 66.8518 29.345C66.9977 29.5246 67.2702 29.6168 67.659 29.6168L85.7058 29.6168L85.7058 25.3426L71.9943 25.3426Z" id="g41" fill="#36426B" fill-rule="evenodd" stroke="none" />
                </g>
              </g>
            </g>
          </g>
        </g>
      </g>
    </g>
    <path d="M366.5 0L365.5 243" id="Line" fill="none" fill-rule="evenodd" stroke="#1B6391" stroke-width="0.75" stroke-linecap="square" stroke-dasharray="2 3" artboard="8ac2311f-33a8-41d9-a1d2-b9dad6119555" />
    <path d="M63.5 0L62.5 279.5" id="Line" fill="none" fill-rule="evenodd" stroke="#835B27" stroke-width="0.75" stroke-linecap="square" stroke-dasharray="2 3" artboard="54cc5ade-d65a-439b-a72a-252b39abee95" />
    <g id="E1-Max" fill="#835B27" transform="translate(21 265.5)" artboard="8700b1d2-4bec-4edb-8d80-801c14e2f732">
      <path d="M1.32 11.2012Q1.188 11.2012 1.116 11.1232Q1.044 11.0452 1.044 10.9252L1.044 3.08917Q1.044 2.95717 1.116 2.87917Q1.188 2.80117 1.32 2.80117L6.276 2.80117Q6.408 2.80117 6.48 2.87917Q6.552 2.95717 6.552 3.08917L6.552 3.54517Q6.552 3.67717 6.48 3.74917Q6.408 3.82117 6.276 3.82117L2.196 3.82117L2.196 6.44917L6.012 6.44917Q6.144 6.44917 6.216 6.52717Q6.288 6.60517 6.288 6.73717L6.288 7.18117Q6.288 7.30117 6.216 7.37917Q6.144 7.45717 6.012 7.45717L2.196 7.45717L2.196 10.1812L6.372 10.1812Q6.504 10.1812 6.576 10.2532Q6.648 10.3252 6.648 10.4572L6.648 10.9252Q6.648 11.0452 6.576 11.1232C6.528 11.1752 6.46 11.2012 6.372 11.2012L1.32 11.2012ZM10.584 11.2012Q10.464 11.2012 10.386 11.1232Q10.308 11.0452 10.308 10.9252L10.308 4.20517L8.316 5.74117Q8.22 5.81317 8.112 5.80117Q8.004 5.78917 7.932 5.69317L7.62 5.29717Q7.548 5.18917 7.566 5.08117Q7.584 4.97317 7.68 4.90117L10.296 2.88517Q10.38 2.82517 10.452 2.81317Q10.524 2.80117 10.608 2.80117L11.22 2.80117Q11.34 2.80117 11.418 2.87917Q11.496 2.95717 11.496 3.07717L11.496 10.9252Q11.496 11.0452 11.418 11.1232Q11.34 11.2012 11.22 11.2012L10.584 11.2012ZM16.47 11.1232Q16.548 11.2012 16.668 11.2012L17.256 11.2012C17.336 11.2012 17.402 11.1752 17.454 11.1232Q17.532 11.0452 17.532 10.9252L17.532 5.02117L19.548 8.93317Q19.608 9.05317 19.692 9.11917Q19.776 9.18517 19.932 9.18517L20.304 9.18517Q20.448 9.18517 20.544 9.11917Q20.64 9.05317 20.688 8.93317L22.692 5.02117L22.692 10.9252Q22.692 11.0452 22.77 11.1232C22.822 11.1752 22.888 11.2012 22.968 11.2012L23.556 11.2012C23.644 11.2012 23.714 11.1752 23.766 11.1232Q23.844 11.0452 23.844 10.9252L23.844 3.08917Q23.844 2.95717 23.766 2.87917Q23.688 2.80117 23.556 2.80117L22.968 2.80117Q22.824 2.80117 22.758 2.87317Q22.692 2.94517 22.668 2.99317L20.112 7.84117L17.58 2.99317Q17.556 2.94517 17.484 2.87317Q17.412 2.80117 17.268 2.80117L16.668 2.80117Q16.548 2.80117 16.47 2.87917Q16.392 2.95717 16.392 3.08917L16.392 10.9252Q16.392 11.0452 16.47 11.1232ZM27.504 11.3212Q26.904 11.3212 26.412 11.0812Q25.92 10.8412 25.62 10.4332Q25.32 10.0252 25.32 9.50917Q25.32 8.68117 25.992 8.18917Q26.664 7.69717 27.744 7.54117L29.532 7.28917L29.532 6.94117Q29.532 6.36517 29.202 6.04117Q28.872 5.71717 28.128 5.71717Q27.6 5.71717 27.264 5.93317Q26.928 6.14917 26.796 6.48517Q26.724 6.66517 26.544 6.66517L26.004 6.66517Q25.872 6.66517 25.806 6.58717Q25.74 6.50917 25.74 6.40117Q25.74 6.22117 25.878 5.95717Q26.016 5.69317 26.304 5.44117Q26.592 5.18917 27.042 5.01517Q27.492 4.84117 28.14 4.84117Q28.86 4.84117 29.352 5.02717Q29.844 5.21317 30.126 5.52517Q30.408 5.83717 30.534 6.23317Q30.66 6.62917 30.66 7.03717L30.66 10.9252Q30.66 11.0452 30.582 11.1232C30.53 11.1752 30.464 11.2012 30.384 11.2012L29.832 11.2012C29.744 11.2012 29.676 11.1752 29.628 11.1232Q29.556 11.0452 29.556 10.9252L29.556 10.4092Q29.4 10.6252 29.136 10.8352Q28.872 11.0452 28.476 11.1832Q28.08 11.3212 27.504 11.3212ZM31.926 11.1292C31.978 11.1772 32.036 11.2012 32.1 11.2012L32.712 11.2012C32.8 11.2012 32.866 11.1792 32.91 11.1352L33.024 11.0212L34.728 8.82517L36.408 11.0212Q36.456 11.0812 36.528 11.1412C36.576 11.1812 36.64 11.2012 36.72 11.2012L37.356 11.2012C37.428 11.2012 37.488 11.1772 37.536 11.1292Q37.608 11.0572 37.608 10.9492Q37.608 10.9012 37.59 10.8532Q37.572 10.8052 37.524 10.7332L35.436 8.03317L37.416 5.42917Q37.464 5.35717 37.482 5.30917Q37.5 5.26117 37.5 5.21317Q37.5 5.10517 37.428 5.03317Q37.356 4.96117 37.248 4.96117L36.66 4.96117Q36.528 4.96117 36.462 5.03317Q36.396 5.10517 36.348 5.16517L34.752 7.22917L33.156 5.15317Q33.12 5.09317 33.048 5.02717Q32.976 4.96117 32.844 4.96117L32.232 4.96117Q32.124 4.96117 32.052 5.03317Q31.98 5.10517 31.98 5.21317Q31.98 5.26117 31.998 5.30917Q32.016 5.35717 32.064 5.42917L34.02 8.00917L31.932 10.7332Q31.884 10.8052 31.866 10.8592Q31.848 10.9132 31.848 10.9492Q31.848 11.0572 31.926 11.1292ZM27.756 10.4212Q28.248 10.4212 28.656 10.2112Q29.064 10.0012 29.298 9.55717Q29.532 9.11317 29.532 8.44117L29.532 8.10517L28.14 8.30917Q27.288 8.42917 26.856 8.71117Q26.424 8.99317 26.424 9.42517Q26.424 9.76117 26.622 9.98317Q26.82 10.2052 27.126 10.3132Q27.432 10.4212 27.756 10.4212Z" />
    </g>
    <g id="E0-Max" fill="#1B6391" transform="translate(370 0)" artboard="440626aa-a6ab-46f1-9541-35caf230479a">
      <path d="M11.076 11.3212Q10.248 11.3212 9.678 11.0632Q9.108 10.8052 8.748 10.3492Q8.388 9.89317 8.226 9.30517Q8.064 8.71717 8.04 8.05717Q8.028 7.73317 8.022 7.37317Q8.016 7.01317 8.022 6.64117Q8.028 6.26917 8.04 5.93317Q8.052 5.27317 8.226 4.68517Q8.4 4.09717 8.76 3.64717Q9.12 3.19717 9.69 2.93917Q10.26 2.68117 11.076 2.68117Q11.904 2.68117 12.474 2.93917Q13.044 3.19717 13.404 3.64717Q13.764 4.09717 13.938 4.68517Q14.112 5.27317 14.124 5.93317Q14.136 6.26917 14.142 6.64117Q14.148 7.01317 14.142 7.37317Q14.136 7.73317 14.124 8.05717Q14.112 8.71717 13.938 9.30517Q13.764 9.89317 13.41 10.3492Q13.056 10.8052 12.486 11.0632Q11.916 11.3212 11.076 11.3212ZM1.32 11.2012Q1.188 11.2012 1.116 11.1232Q1.044 11.0452 1.044 10.9252L1.044 3.08917Q1.044 2.95717 1.116 2.87917Q1.188 2.80117 1.32 2.80117L6.276 2.80117Q6.408 2.80117 6.48 2.87917Q6.552 2.95717 6.552 3.08917L6.552 3.54517Q6.552 3.67717 6.48 3.74917Q6.408 3.82117 6.276 3.82117L2.196 3.82117L2.196 6.44917L6.012 6.44917Q6.144 6.44917 6.216 6.52717Q6.288 6.60517 6.288 6.73717L6.288 7.18117Q6.288 7.30117 6.216 7.37917Q6.144 7.45717 6.012 7.45717L2.196 7.45717L2.196 10.1812L6.372 10.1812Q6.504 10.1812 6.576 10.2532Q6.648 10.3252 6.648 10.4572L6.648 10.9252Q6.648 11.0452 6.576 11.1232C6.528 11.1752 6.46 11.2012 6.372 11.2012L1.32 11.2012ZM18.954 11.1232Q19.032 11.2012 19.152 11.2012L19.74 11.2012C19.82 11.2012 19.886 11.1752 19.938 11.1232Q20.016 11.0452 20.016 10.9252L20.016 5.02117L22.032 8.93317Q22.092 9.05317 22.176 9.11917Q22.26 9.18517 22.416 9.18517L22.788 9.18517Q22.932 9.18517 23.028 9.11917Q23.124 9.05317 23.172 8.93317L25.176 5.02117L25.176 10.9252Q25.176 11.0452 25.254 11.1232C25.306 11.1752 25.372 11.2012 25.452 11.2012L26.04 11.2012C26.128 11.2012 26.198 11.1752 26.25 11.1232Q26.328 11.0452 26.328 10.9252L26.328 3.08917Q26.328 2.95717 26.25 2.87917Q26.172 2.80117 26.04 2.80117L25.452 2.80117Q25.308 2.80117 25.242 2.87317Q25.176 2.94517 25.152 2.99317L22.596 7.84117L20.064 2.99317Q20.04 2.94517 19.968 2.87317Q19.896 2.80117 19.752 2.80117L19.152 2.80117Q19.032 2.80117 18.954 2.87917Q18.876 2.95717 18.876 3.08917L18.876 10.9252Q18.876 11.0452 18.954 11.1232ZM11.076 10.2892Q12.012 10.2892 12.462 9.67717Q12.912 9.06517 12.924 7.99717Q12.948 7.64917 12.948 7.31917L12.948 6.65917Q12.948 6.32917 12.924 6.00517Q12.912 4.96117 12.462 4.33117Q12.012 3.70117 11.076 3.70117Q10.152 3.70117 9.702 4.33117Q9.252 4.96117 9.228 6.00517Q9.228 6.32917 9.222 6.65917Q9.216 6.98917 9.222 7.31917Q9.228 7.64917 9.228 7.99717Q9.252 9.06517 9.708 9.67717Q10.164 10.2892 11.076 10.2892ZM29.988 11.3212Q29.388 11.3212 28.896 11.0812Q28.404 10.8412 28.104 10.4332Q27.804 10.0252 27.804 9.50917Q27.804 8.68117 28.476 8.18917Q29.148 7.69717 30.228 7.54117L32.016 7.28917L32.016 6.94117Q32.016 6.36517 31.686 6.04117Q31.356 5.71717 30.612 5.71717Q30.084 5.71717 29.748 5.93317Q29.412 6.14917 29.28 6.48517Q29.208 6.66517 29.028 6.66517L28.488 6.66517Q28.356 6.66517 28.29 6.58717Q28.224 6.50917 28.224 6.40117Q28.224 6.22117 28.362 5.95717Q28.5 5.69317 28.788 5.44117Q29.076 5.18917 29.526 5.01517Q29.976 4.84117 30.624 4.84117Q31.344 4.84117 31.836 5.02717Q32.328 5.21317 32.61 5.52517Q32.892 5.83717 33.018 6.23317Q33.144 6.62917 33.144 7.03717L33.144 10.9252Q33.144 11.0452 33.066 11.1232C33.014 11.1752 32.948 11.2012 32.868 11.2012L32.316 11.2012Q32.184 11.2012 32.112 11.1232Q32.04 11.0452 32.04 10.9252L32.04 10.4092Q31.884 10.6252 31.62 10.8352Q31.356 11.0452 30.96 11.1832Q30.564 11.3212 29.988 11.3212ZM34.41 11.1292C34.462 11.1772 34.52 11.2012 34.584 11.2012L35.196 11.2012C35.284 11.2012 35.35 11.1792 35.394 11.1352L35.508 11.0212L37.212 8.82517L38.892 11.0212Q38.94 11.0812 39.012 11.1412C39.06 11.1812 39.124 11.2012 39.204 11.2012L39.84 11.2012C39.912 11.2012 39.972 11.1772 40.02 11.1292Q40.092 11.0572 40.092 10.9492Q40.092 10.9012 40.074 10.8532Q40.056 10.8052 40.008 10.7332L37.92 8.03317L39.9 5.42917Q39.948 5.35717 39.966 5.30917Q39.984 5.26117 39.984 5.21317Q39.984 5.10517 39.912 5.03317Q39.84 4.96117 39.732 4.96117L39.144 4.96117Q39.012 4.96117 38.946 5.03317Q38.88 5.10517 38.832 5.16517L37.236 7.22917L35.64 5.15317Q35.604 5.09317 35.532 5.02717Q35.46 4.96117 35.328 4.96117L34.716 4.96117Q34.608 4.96117 34.536 5.03317Q34.464 5.10517 34.464 5.21317Q34.464 5.26117 34.482 5.30917Q34.5 5.35717 34.548 5.42917L36.504 8.00917L34.416 10.7332Q34.368 10.8052 34.35 10.8592Q34.332 10.9132 34.332 10.9492Q34.332 11.0572 34.41 11.1292ZM30.24 10.4212Q30.732 10.4212 31.14 10.2112Q31.548 10.0012 31.782 9.55717Q32.016 9.11317 32.016 8.44117L32.016 8.10517L30.624 8.30917Q29.772 8.42917 29.34 8.71117Q28.908 8.99317 28.908 9.42517Q28.908 9.76117 29.106 9.98317Q29.304 10.2052 29.61 10.3132Q29.916 10.4212 30.24 10.4212Z" />
    </g>
  </g>
</svg>